<?xml version="1.0" encoding="UTF-8" standalone="no"?>
<!DOCTYPE svg PUBLIC "-//W3C//DTD SVG 1.1//EN" "http://www.w3.org/Graphics/SVG/1.1/DTD/svg11.dtd">
<svg width="100%" height="100%" viewBox="0 0 323 83" version="1.1" xmlns="http://www.w3.org/2000/svg" xmlns:xlink="http://www.w3.org/1999/xlink" xml:space="preserve" xmlns:serif="http://www.serif.com/" style="fill-rule:evenodd;clip-rule:evenodd;stroke-linejoin:round;stroke-miterlimit:2;">
    <g transform="matrix(1,0,0,1,-100.402,-27.4748)">
        <g transform="matrix(1,0,0,0.865012,0.674538,7.93533)">
            <g transform="matrix(0.0996202,0,0,0.0687819,352.765,22.5639)">
                <path d="M37.187,135.965C37.535,142.847 35.437,169.717 19.642,195.212C-9.552,242.337 -11.977,282.748 22.388,329.56C32.782,343.718 47.493,357.011 63.591,364.332C68.658,366.635 74.811,368.752 80.421,368.984C82.101,369.053 85.504,368.946 86.861,367.707C87.5,367.125 87.764,365.986 87.889,365.18C89.063,357.6 96.341,352.857 103.772,354.857C130.573,362.068 178.539,371.949 204.298,355.865C217.646,347.53 231.843,338.01 250.848,294.844C262.839,267.607 271.625,217.662 263.799,180.291C262.017,187.133 254.269,206.707 239.828,219.015C230.07,227.332 213.544,234.254 213.544,234.254C220.282,146.394 199.811,66.667 131.676,25.436C112.425,13.786 90.986,5.407 69.063,0.36C81.461,16.798 92.785,34.601 100.018,52.817C107.913,72.704 110.691,92.685 105.435,113.628C100.772,132.201 90.511,148.71 79.618,164.223L69.235,179.008L59.421,163.839C55.367,157.574 46.606,145.884 37.187,135.965Z" style="fill:rgb(238,52,47);"/>
            </g>
            <g transform="matrix(0.0996202,0,0,0.0916256,352.765,14.1346)">
                <path d="M68.603,366.382C72.446,367.773 76.562,368.824 80.421,368.984C82.101,369.053 97.495,366.024 112.069,364.689C145.479,361.627 167.024,369.549 193.831,360.684C210.544,341.973 245.735,326.749 235.695,270.422C214.331,300.579 186.232,305.89 186.232,305.89C208.92,178.185 121.808,153.574 121.808,153.574C149.9,205.857 116.882,251.616 99.668,276.129C94.805,268.611 63.742,237.213 53.961,235.316C54.782,255.497 40.899,286.186 40.899,286.186C21.555,320.31 56.731,347.389 68.603,366.382Z" style="fill:rgb(243,176,28);"/>
            </g>
        </g>
        <g transform="matrix(0.763034,0,0,0.763034,66.3506,18.8243)">
            <g transform="matrix(1,0,0,1,-212.01,0.100587)">
                <path d="M512.51,75.13L490.32,45.75L516.04,45.75L561.43,105.52L535.46,105.52L525.37,92.15L515.28,105.52L489.43,105.52L512.51,75.13Z" style="fill:white;fill-rule:nonzero;"/>
                <path d="M534.89,45.75L560.49,45.75L540.84,71.92L527.84,55.15L534.89,45.75Z" style="fill:white;fill-rule:nonzero;"/>
            </g>
            <path d="M100.22,100.4C113.32,98.97 125.67,92.11 132.47,80.66C129.25,108.98 97.74,126.88 72.02,115.89C69.65,114.88 67.61,113.2 66.21,111.04C60.43,102.12 58.53,90.77 61.26,80.47C69.06,93.7 84.92,101.81 100.22,100.4Z" style="fill:rgb(243,176,28);fill-rule:nonzero;"/>
            <path d="M60.78,72.16C55.47,84.22 55.24,98.34 61.75,109.96C38.84,93.02 39.09,56.77 61.47,40C63.54,38.45 66,37.53 68.58,37.39C79.19,36.84 89.97,40.87 97.53,48.38C82.17,48.53 67.21,58.2 60.78,72.16Z" style="fill:rgb(141,38,118);fill-rule:nonzero;"/>
            <path d="M104.94,52.09C97.19,41.47 85.06,34.24 71.77,34.02C97.46,22.56 129.06,41.14 132.5,68.61C132.82,71.16 132.4,73.76 131.25,76.06C126.45,85.64 117.55,93.07 107.15,95.82C114.77,81.93 113.83,64.96 104.94,52.09Z" style="fill:rgb(238,52,47);fill-rule:nonzero;"/>
        </g>
        <g transform="matrix(1,0,0,1,-48.9262,70.7631)">
            <path d="M257.681,29.53C249.425,29.53 242.897,27.562 238.097,23.626C233.297,19.69 230.897,13.754 230.897,5.818C230.897,0.442 232.017,-4.006 234.257,-7.526C236.497,-11.046 239.633,-13.654 243.665,-15.35C247.697,-17.046 252.401,-17.894 257.777,-17.894C261.169,-17.894 264.209,-17.654 266.897,-17.174C269.585,-16.694 272.145,-15.878 274.577,-14.726L274.577,-2.054C270.801,-3.846 266.513,-4.742 261.713,-4.742C257.617,-4.742 254.529,-3.974 252.449,-2.438C250.369,-0.902 249.329,1.85 249.329,5.818C249.329,9.53 250.321,12.218 252.305,13.882C254.289,15.546 257.425,16.378 261.713,16.378C264.017,16.378 266.257,16.106 268.433,15.562C270.609,15.018 272.689,14.234 274.673,13.21L274.673,26.458C272.241,27.546 269.633,28.33 266.849,28.81C264.065,29.29 261.009,29.53 257.681,29.53Z" style="fill:white;fill-rule:nonzero;"/>
            <g transform="matrix(1,0,0,1,1,0)">
                <path d="M293.105,28.57L275.153,-16.934L293.969,-16.934L302.609,9.754L311.249,-16.934L330.065,-16.934L312.113,28.57L293.105,28.57Z" style="fill:white;fill-rule:nonzero;"/>
            </g>
            <rect x="385.361" y="15.61" width="14.208" height="12.96" style="fill:white;fill-rule:nonzero;"/>
            <g transform="matrix(1,0,0,1,-2,0)">
                <path d="M408.977,28.57L408.977,-3.782L402.353,-3.782L403.889,-16.934L427.025,-16.934L427.025,28.57L408.977,28.57Z" style="fill:white;fill-rule:nonzero;"/>
            </g>
            <g transform="matrix(1,0,0,1,-2,0)">
                <path d="M451.505,29.53C447.601,29.53 443.937,29.258 440.513,28.714C437.089,28.17 434.385,27.482 432.401,26.65L432.401,13.69C434.641,14.714 437.313,15.514 440.417,16.09C443.521,16.666 446.161,16.954 448.337,16.954C450.641,16.954 452.385,16.89 453.569,16.762C454.753,16.634 455.345,16.09 455.345,15.13C455.345,14.042 454.289,13.21 452.177,12.634C450.065,12.058 447.409,11.226 444.209,10.138C440.049,8.666 436.945,6.938 434.897,4.954C432.849,2.97 431.825,0.09 431.825,-3.686C431.825,-8.23 433.617,-11.734 437.201,-14.198C440.785,-16.662 446.417,-17.894 454.097,-17.894C457.041,-17.894 460.081,-17.67 463.217,-17.222C466.353,-16.774 468.817,-16.262 470.609,-15.686L470.609,-3.014C468.689,-3.846 466.593,-4.454 464.321,-4.838C462.049,-5.222 459.985,-5.414 458.129,-5.414C456.081,-5.414 454.257,-5.318 452.657,-5.126C451.057,-4.934 450.257,-4.39 450.257,-3.494C450.257,-2.47 451.169,-1.734 452.993,-1.286C454.817,-0.838 457.265,-0.134 460.337,0.826C463.793,1.85 466.497,2.97 468.449,4.186C470.401,5.402 471.777,6.874 472.577,8.602C473.377,10.33 473.777,12.474 473.777,15.034C473.777,19.642 471.905,23.21 468.161,25.738C464.417,28.266 458.865,29.53 451.505,29.53Z" style="fill:white;fill-rule:nonzero;"/>
            </g>
        </g>
    </g>
</svg>
