<?xml version="1.0" encoding="UTF-8"?><svg id="a" xmlns="http://www.w3.org/2000/svg" viewBox="0 0 611.25 615.51"><g id="b"><path d="m386.29,485.14c91.01-9.93,176.83-57.6,224.12-137.18-22.36,196.77-241.35,321.17-420.03,244.77-16.49-7.05-30.63-18.66-40.38-33.71-40.17-61.96-53.38-140.83-34.43-212.39,54.23,91.95,164.42,148.34,270.72,138.52"/><path d="m112.26,288.92c-36.91,83.77-38.53,181.93,6.75,262.68-159.23-117.74-157.47-369.59-1.96-486.14,14.35-10.75,31.48-17.19,49.39-18.11,73.74-3.81,148.64,24.19,201.15,76.38-106.75.99-210.67,68.22-255.33,165.19"/><path d="m419.05,149.45c-53.84-73.8-138.16-123.99-230.49-125.52,178.51-79.64,398.03,49.48,421.97,240.31,2.22,17.75-.69,35.76-8.7,51.74-33.37,66.54-95.21,118.17-167.47,137.28,53.05-96.49,46.46-214.39-15.31-303.82"/></g></svg>