<?xml version="1.0" encoding="UTF-8"?>
<svg id="Layer_2" data-name="Layer 2" xmlns="http://www.w3.org/2000/svg" viewBox="0 0 410.8 62.3">
  <defs>
    <style>
      .cls-1 {
        fill: #231f20;
      }
    </style>
  </defs>
  <g id="Layer_1-2" data-name="Layer 1">
    <g>
      <path class="cls-1" d="m361.88,30.64l-22.19-29.38h25.72l45.39,59.77h-25.97l-10.09-13.37-10.09,13.37h-25.85l23.08-30.39Z"/>
      <polygon class="cls-1" points="384.26 1.26 409.86 1.26 390.21 27.43 377.21 10.66 384.26 1.26"/>
    </g>
    <path class="cls-1" d="m9.27,54.41C3.09,49.16,0,41.4,0,31.15S3.15,13.14,9.46,7.89C15.76,2.64,24.38.01,35.31.01c4.54,0,8.55.31,12.04.95,3.49.63,6.83,1.7,10.02,3.22v16.63c-4.96-2.35-10.59-3.53-16.89-3.53-5.55,0-9.65,1.05-12.29,3.15-2.65,2.1-3.97,5.67-3.97,10.72s1.3,8.41,3.91,10.59c2.6,2.19,6.72,3.28,12.36,3.28,5.97,0,11.64-1.39,17.02-4.16v17.4c-5.97,2.69-13.41,4.03-22.32,4.03-11.11,0-19.74-2.63-25.92-7.88Z"/>
    <path class="cls-1" d="m62.89,31.14c0-10.17,2.9-17.9,8.7-23.2S86.13,0,97.82,0s20.57,2.65,26.42,7.94c5.84,5.29,8.76,13.03,8.76,23.2,0,20.76-11.73,31.14-35.18,31.14-23.29.01-34.93-10.37-34.93-31.14Zm43.32,10.6c1.72-2.19,2.58-5.72,2.58-10.59s-.86-8.3-2.58-10.53c-1.72-2.23-4.52-3.34-8.39-3.34s-6.52,1.12-8.2,3.34c-1.68,2.23-2.52,5.74-2.52,10.53s.84,8.41,2.52,10.59c1.68,2.19,4.41,3.28,8.2,3.28,3.87,0,6.66-1.1,8.39-3.28Z"/>
    <path class="cls-1" d="m138.52,1.26h22.19l.63,4.54c2.44-1.68,5.55-3.07,9.33-4.16S178.36,0,182.4,0C189.88,0,195.34,1.85,198.79,5.55c3.45,3.7,5.17,9.41,5.17,17.15v38.33h-23.7V25.09c0-2.69-.61-4.62-1.83-5.8-1.22-1.18-3.26-1.76-6.12-1.76-1.76,0-3.57.4-5.42,1.2s-3.4,1.83-4.67,3.09v39.21h-23.7V1.26h0Z"/>
    <path class="cls-1" d="m204.03,1.26h24.71l11.35,35.05L251.44,1.26h24.71l-23.58,59.77h-24.97L204.03,1.26Z"/>
    <path class="cls-1" d="m283.61,55.89c-7.12-5.34-10.45-14.61-10.45-24.62s2.65-17.78,8.7-23.33c6.05-5.55,15.27-7.94,26.91-7.94,10.71,0,19.13,2.48,25.28,7.44,6.14,4.96,9.22,11.73,9.22,20.3v10.47h-45.07c1.12,3.11,2.54,5.36,6.03,6.75s8.36,2.08,14.59,2.08c3.72,0,7.52-.29,11.38-.88,1.36-.21,3.6-.54,4.78-.79v14.53c-5.89,1.6-13.74,2.4-22.59,2.4-11.91-.01-21.66-1.07-28.78-6.41Zm34.76-30.54c0-2.96-3.41-9.33-10.26-9.33-6.18,0-10.26,6.27-10.26,9.33h20.52Z"/>
  </g>
</svg>