<?xml version="1.0" encoding="UTF-8" standalone="no"?>
<!DOCTYPE svg PUBLIC "-//W3C//DTD SVG 1.1//EN" "http://www.w3.org/Graphics/SVG/1.1/DTD/svg11.dtd">
<svg width="100%" height="100%" viewBox="0 0 1360 1129" version="1.1" xmlns="http://www.w3.org/2000/svg" xmlns:xlink="http://www.w3.org/1999/xlink" xml:space="preserve" xmlns:serif="http://www.serif.com/" style="fill-rule:evenodd;clip-rule:evenodd;stroke-linejoin:round;stroke-miterlimit:2;">
    <g transform="matrix(1,0,0,1,-1035.51,-710.792)">
        <g transform="matrix(18.8793,0,0,18.8793,-8204.59,-152.937)">
            <path d="M512.51,75.13L490.32,45.75L516.04,45.75L561.43,105.52L535.46,105.52L525.37,92.15L515.28,105.52L489.43,105.52L512.51,75.13Z" style="fill-rule:nonzero;"/>
        </g>
        <g transform="matrix(18.8793,0,0,18.8793,-8204.59,-152.937)">
            <path d="M534.89,45.75L560.49,45.75L540.84,71.92L527.84,55.15L534.89,45.75ZM535.994,47.957L556.073,47.957C556.073,47.957 540.812,68.282 540.812,68.282C540.812,68.282 530.615,55.128 530.615,55.128L535.994,47.957Z"/>
        </g>
    </g>
</svg>
