<?xml version="1.0" encoding="utf-8"?>
<!-- Generator: Adobe Illustrator 25.4.1, SVG Export Plug-In . SVG Version: 6.00 Build 0)  -->
<svg version="1.1" id="Layer_1" xmlns="http://www.w3.org/2000/svg" xmlns:xlink="http://www.w3.org/1999/xlink" x="0px" y="0px"
	 viewBox="0 0 150 150" style="enable-background:new 0 0 150 150;" xml:space="preserve">
<path d="M86.61,100.53L86.61,100.53c13.1-1.43,25.45-8.29,32.25-19.74c-3.22,28.32-34.73,46.22-60.45,35.23
	c-2.37-1.01-4.41-2.69-5.81-4.85c-5.78-8.92-7.68-20.27-4.95-30.57C55.45,93.83,71.31,101.94,86.61,100.53z"/>
<path d="M47.17,72.29L47.17,72.29c-5.31,12.06-5.54,26.18,0.97,37.8C25.22,93.15,25.48,56.9,47.86,40.13
	c2.07-1.55,4.53-2.47,7.11-2.61C65.58,36.97,76.36,41,83.92,48.51C68.55,48.66,53.6,58.33,47.17,72.29z"/>
<path d="M91.32,52.22L91.32,52.22c-7.75-10.62-19.88-17.85-33.17-18.07c25.69-11.46,57.29,7.12,60.73,34.59
	c0.32,2.55-0.1,5.15-1.25,7.45c-4.8,9.58-13.7,17.01-24.1,19.76C101.16,82.06,100.21,65.09,91.32,52.22z"/>
</svg>
